<svg id="Layer_1" data-name="Layer 1" xmlns="http://www.w3.org/2000/svg" viewBox="0 0 194.45 194.45"><defs><style>.cls-1{fill:#d9b080;}.cls-2{fill:#1d202c;}.cls-3{fill:#f27b7b;}.cls-4{fill:#272930;}.cls-5{fill:#050606;}</style></defs><title>dog</title><rect class="cls-1" width="194.45" height="194.45"/><path class="cls-2" d="M89.38,164.41c3.65-1.88,7.28-3.81,11-5.62a6.09,6.09,0,0,1,6.78.59c3,2.33,6.54,3.39,10.08,4.5-1.39,5.43-6.37,5.1-10.15,5.55C100.69,170.18,94,170.43,89.38,164.41Z" transform="translate(-5.29 -15.14)"/><path class="cls-3" d="M97.59,168a19.45,19.45,0,0,0-.42-4.5c.33-1.33-.26-2.58-.32-3.87a26.81,26.81,0,0,0,3.11.9c1.19.2,2.46.34,3.4-.76.19-.23.36-.62.75-.21,2.17,2.25,4.39.6,6.59.08-.11,1.3-.23,2.59-.34,3.88s-.23,2.71-.34,4.07c-.2.86-.33,1.74-.6,2.57a5.48,5.48,0,0,1-5.51,4,5.34,5.34,0,0,1-5.6-3.81C98,169.55,97.83,168.76,97.59,168Z" transform="translate(-5.29 -15.14)"/><path class="cls-4" d="M70.05,75.76A72.21,72.21,0,0,0,84.76,68c6.9-4.61,14.66-4.94,22.7-4.68,7.63.25,13.42,4.25,19.57,7.82,3,1.73,6.19,3,9.3,4.56-2.14,4.68-2,9.54-1.06,14.43,1.07,5.54,3.06,10.87,3.6,16.52a65.39,65.39,0,0,1-5.32,29.19A23.5,23.5,0,0,0,132,147.14c1.08,12.16-10.39,19.58-20.82,16.55a17.32,17.32,0,0,1-5.76-2.38,3.41,3.41,0,0,0-3.83-.22c-2.06,1.08-4.07,2.22-6.1,3.34-5.06,0-10,0-14.56-3.1-4.16-2.81-6.21-6.44-6.19-11.1a55.49,55.49,0,0,0-4.83-23c-1.81-4.06-2.14-8.31-2-12.68.1-3.08-.07-6.18-.12-9.26.34-4.44,1.75-8.65,2.83-12.93C72,86.78,72.37,81.24,70.05,75.76Zm34.27,63.42V139a48.62,48.62,0,0,0-6.29.34c-4.18.75-5.73,4.12-3.5,7.75,2.09,3.41,5.25,6.07,9.25,6.08s7.15-2.72,9.24-6.1c2.34-3.8.59-7.2-3.86-7.81A35.35,35.35,0,0,0,104.32,139.18Zm20.9-25c.15,1.79.29,3.87,2.39,4,2.3.19,2.56-2,2.64-3.68s-.16-3.81-2.34-4S125.49,112.47,125.22,114.14Z" transform="translate(-5.29 -15.14)"/><path class="cls-4" d="M70.05,75.76c2.32,5.48,1.92,11,.52,16.62-1.08,4.28-2.49,8.49-2.83,12.93-2,6.79-1.45,13.75-1.36,20.68.05,4,.35,7.94-.62,11.85-.36,1.48-.73,3-2.44,3.43s-3.07-.71-4.06-2a20.85,20.85,0,0,1-2.81-4.37c-2.62-6.11-7-10.78-12-14.91a34.32,34.32,0,0,1-7.06-7.62c-3-4.61-3.34-9.09.47-13C45.47,91.58,53.32,84,62.69,78.21A16.37,16.37,0,0,1,70.05,75.76Z" transform="translate(-5.29 -15.14)"/><path class="cls-4" d="M138.87,106.68c-.54-5.65-2.53-11-3.6-16.52-.94-4.89-1.08-9.75,1.06-14.43A22.18,22.18,0,0,1,148,81c6.3,5.19,12.57,10.44,18.55,16s6.1,11.32.76,17.63a33.26,33.26,0,0,1-4.16,4.23c-5.79,4.79-10.67,10.25-13.92,17.14-1.15,2.43-2.51,6-5.91,5.19-3.61-.84-3-4.71-3.19-7.54-.54-8.26.86-16.59-.7-24.83C139.33,108.08,139.07,107.38,138.87,106.68Z" transform="translate(-5.29 -15.14)"/><path class="cls-5" d="M104.32,139.18a35.35,35.35,0,0,1,4.83,0c4.45.61,6.2,4,3.86,7.81-2.09,3.38-5.22,6.12-9.24,6.1s-7.16-2.67-9.25-6.08c-2.23-3.63-.68-7,3.5-7.75a48.62,48.62,0,0,1,6.29-.34Z" transform="translate(-5.29 -15.14)"/><path class="cls-5" d="M83.77,115.77c-.36,2.39-.59,5.26-3.6,5.28-2.83,0-3.14-2.77-3.14-5s-.13-5.37,3.07-5.5S83.31,113.46,83.77,115.77Z" transform="translate(-5.29 -15.14)"/><path class="cls-5" d="M131.19,115.77c-.35,2.39-.59,5.26-3.6,5.28-2.82,0-3.14-2.77-3.13-5s-.14-5.37,3.07-5.5S130.74,113.46,131.19,115.77Z" transform="translate(-5.29 -15.14)"/><path class="cls-4" d="M129.34,77.09A30.28,30.28,0,0,1,118.14,65c-1.42-2.79-2.48-5.9-4.79-8a1.76,1.76,0,0,0-1.14-.57c-.95,0-1.32,1.2-1.43,2.13l-.6,5.25A38.36,38.36,0,0,0,90.6,59a7.65,7.65,0,0,0-3.58.74,3,3,0,0,0-1.67,3l7.29.12a19.23,19.23,0,0,0-15.69,8l11.38.69c-1.15,1.6-.56,4,.84,5.38a10.67,10.67,0,0,0,5.32,2.43A42.62,42.62,0,0,0,123,75.72" transform="translate(-5.29 -15.14)"/><path class="cls-4" d="M51.56,75.41c-1.67.91-3.26,2.53-3,4.42a11.49,11.49,0,0,0,3.26,0C50,84.76,43.58,86.94,42.14,92c6-.16,11.84-1.94,17.41-4.14,3.53-1.4,11.5-3.37,13-7.31C76.35,70.74,55.64,73.2,51.56,75.41Z" transform="translate(-5.29 -15.14)"/><path class="cls-4" d="M131.22,75.4c-2.86-1.17-4.36-4.24-5.73-7s-3.22-5.75-6.23-6.41c-1.91,2.36-1.14,6,.68,8.42s4.47,4.1,6.66,6.2a1.89,1.89,0,0,0,.77.54c.71.18,1.32-.5,1.77-1.07a16.25,16.25,0,0,1,12.3-6,3.25,3.25,0,0,1,2,.45,1.29,1.29,0,0,1,.35,1.81,6.91,6.91,0,0,0-5.11,1.88c3.67.1,7.44.21,10.85,1.6s6.42,4.35,6.79,8L148.09,82c1.08,2.31,2.06,4.67,2.92,7.07-4.73,1.18-9.51-1.35-13.73-3.79a88.78,88.78,0,0,1-13.8-9.15" transform="translate(-5.29 -15.14)"/><path class="cls-2" d="M132,110.82c-2.52-7.75-8-10.5-14.84-11.25-1.13-.12-2.33-.43-2.67-1.66s.81-2,1.63-2.69c3.69-3.12,7.79-4.2,12.42-2.29a15,15,0,0,1,9,13.6c-2.34-.42-3.27-2.92-5.6-3.61C131,105.33,132.69,107.67,132,110.82Z" transform="translate(-5.29 -15.14)"/><path class="cls-2" d="M75.19,109.59l.68-6.75c-2.79.3-3.66,3-5.79,3.9-.83-4.85,2.64-10.83,7.72-13.39a11.75,11.75,0,0,1,13.68,2.16c.68.69,1.65,1.35,1.3,2.47s-1.59,1.39-2.69,1.62c-1.81.38-3.64.72-5.42,1.2C80,102.07,77.35,105.52,75.19,109.59Z" transform="translate(-5.29 -15.14)"/></svg>