<svg id="Layer_1" data-name="Layer 1" xmlns="http://www.w3.org/2000/svg" viewBox="0 0 182.11 44.22"><defs><style>.cls-1{fill:#6fc7b5;}</style></defs><title>logo</title><path class="cls-1" d="M13.06,65.5H17.9l2.25,20.16.25,4.7h.49l.47-5.29L25,65.5h4l3.44,19.57.39,5.29h.51l.23-4.7,2-20.16h4.87L35.81,98.86H30.67l-2.75-16-.86-7h-.39l-.84,7-2.89,16H17.86Z" transform="translate(-13.06 -63.33)"/><path class="cls-1" d="M47.55,99.15a4.83,4.83,0,0,1-2.22-.49A5.09,5.09,0,0,1,43.7,97.3a5.89,5.89,0,0,1-1-2,9.18,9.18,0,0,1-.35-2.57,9.51,9.51,0,0,1,.42-3A7.42,7.42,0,0,1,44,87.42a9.3,9.3,0,0,1,2-1.89,19,19,0,0,1,2.71-1.61c.5-.25,1.06-.5,1.67-.75s1.17-.47,1.65-.66V79c0-.52,0-1-.05-1.46a3.59,3.59,0,0,0-.29-1.17,1.76,1.76,0,0,0-.67-.78,2.29,2.29,0,0,0-1.23-.28,2.81,2.81,0,0,0-1,.19,2.14,2.14,0,0,0-.88.67,3.55,3.55,0,0,0-.6,1.25A7,7,0,0,0,47,79.31v1.17H43.21c-.11-.51-.2-1-.26-1.39a9.11,9.11,0,0,1-.09-1.26,6.51,6.51,0,0,1,.52-2.66,5.37,5.37,0,0,1,1.45-1.93A6.26,6.26,0,0,1,47,72.05a9.77,9.77,0,0,1,2.83-.4,10.81,10.81,0,0,1,3.34.44,4.87,4.87,0,0,1,2.12,1.32,5,5,0,0,1,1.12,2.21,13.49,13.49,0,0,1,.32,3.1V98.86H53.1l-.35-2.3a6.18,6.18,0,0,1-2.14,1.87A6.37,6.37,0,0,1,47.55,99.15Zm2.19-3.8A2.52,2.52,0,0,0,51,95a3.43,3.43,0,0,0,1-.79V85.81c-.26.11-.55.23-.87.38a8.51,8.51,0,0,0-1.06.56,6.81,6.81,0,0,0-1,.8,5.06,5.06,0,0,0-.91,1.12,6.2,6.2,0,0,0-.65,1.45,6.35,6.35,0,0,0-.24,1.81,4.55,4.55,0,0,0,.6,2.48A2.16,2.16,0,0,0,49.74,95.35Z" transform="translate(-13.06 -63.33)"/><path class="cls-1" d="M62,63.33H67V98.86H62Z" transform="translate(-13.06 -63.33)"/><path class="cls-1" d="M72.3,63.33h4.94V83.78h.16L82.79,72h4.74l-6,12.3L88.1,98.86h-5L77.4,85.52h-.16V98.86H72.3Z" transform="translate(-13.06 -63.33)"/><path class="cls-1" d="M91.74,104a3.53,3.53,0,0,0,1.61-.85,4.45,4.45,0,0,0,1.07-1.65A7.58,7.58,0,0,0,94.88,99L88.51,72h5l2.83,14.88L97.18,92h.16l.57-5.14L100.19,72h4.87L99.39,99.86a18.54,18.54,0,0,1-1,3.38,8.19,8.19,0,0,1-1.42,2.4,5.41,5.41,0,0,1-2,1.43,7.21,7.21,0,0,1-2.74.48,7.36,7.36,0,0,1-2.59-.49v-3A5.62,5.62,0,0,0,91.74,104Z" transform="translate(-13.06 -63.33)"/><path class="cls-1" d="M120.35,69.49H115v-4h15.78v4h-5.35V98.86h-5.06Z" transform="translate(-13.06 -63.33)"/><path class="cls-1" d="M137.66,99.15a4.83,4.83,0,0,1-2.22-.49,5,5,0,0,1-1.63-1.36,5.89,5.89,0,0,1-1-2,9.18,9.18,0,0,1-.35-2.57,9.83,9.83,0,0,1,.41-3,7.66,7.66,0,0,1,1.21-2.32,9.3,9.3,0,0,1,2-1.89,18.47,18.47,0,0,1,2.71-1.61c.5-.25,1.05-.5,1.67-.75s1.17-.47,1.65-.66V79c0-.52,0-1-.06-1.46a3.35,3.35,0,0,0-.28-1.17,1.76,1.76,0,0,0-.67-.78,2.29,2.29,0,0,0-1.23-.28,2.81,2.81,0,0,0-1,.19,2.14,2.14,0,0,0-.88.67,3.55,3.55,0,0,0-.6,1.25,7,7,0,0,0-.23,1.93v1.17h-3.77c-.11-.51-.2-1-.26-1.39a9.11,9.11,0,0,1-.09-1.26,6.35,6.35,0,0,1,.52-2.66,5.35,5.35,0,0,1,1.44-1.93,6.39,6.39,0,0,1,2.22-1.19,9.77,9.77,0,0,1,2.83-.4,10.86,10.86,0,0,1,3.34.44,4.87,4.87,0,0,1,2.12,1.32,5,5,0,0,1,1.12,2.21,13.49,13.49,0,0,1,.32,3.1V98.86h-3.67l-.36-2.3a6.06,6.06,0,0,1-2.13,1.87A6.4,6.4,0,0,1,137.66,99.15Zm2.19-3.8a2.52,2.52,0,0,0,1.22-.33,3.57,3.57,0,0,0,1-.79V85.81l-.88.38a9.2,9.2,0,0,0-1.05.56,7.42,7.42,0,0,0-1,.8,5.33,5.33,0,0,0-.9,1.12,5.81,5.81,0,0,0-.65,1.45,6.35,6.35,0,0,0-.24,1.81,4.55,4.55,0,0,0,.6,2.48A2.16,2.16,0,0,0,139.85,95.35Z" transform="translate(-13.06 -63.33)"/><path class="cls-1" d="M152.15,63.33h4.94V98.86h-4.94Z" transform="translate(-13.06 -63.33)"/><path class="cls-1" d="M162.41,63.33h4.94V83.78h.16L172.9,72h4.74l-6,12.3,6.54,14.59h-5l-5.66-13.34h-.16V98.86h-4.94Z" transform="translate(-13.06 -63.33)"/><path class="cls-1" d="M181.84,104a3.52,3.52,0,0,0,1.62-.85,4.45,4.45,0,0,0,1.07-1.65A7.58,7.58,0,0,0,185,99l-6.37-27h5l2.83,14.88.82,5.14h.16l.57-5.14L190.3,72h4.87L189.5,99.86a18.54,18.54,0,0,1-.95,3.38,8.19,8.19,0,0,1-1.42,2.4,5.41,5.41,0,0,1-2,1.43,7.21,7.21,0,0,1-2.74.48,7.46,7.46,0,0,1-2.6-.49l0-3A5.55,5.55,0,0,0,181.84,104Z" transform="translate(-13.06 -63.33)"/></svg>