<svg id="Layer_1" data-name="Layer 1" xmlns="http://www.w3.org/2000/svg" viewBox="0 0 17.53 14.67"><defs><style>.cls-1{fill:#192b3f;}</style></defs><title>paw</title><path class="cls-1" d="M41.71,38.38a3.22,3.22,0,0,1-4.91,3.51,1.48,1.48,0,0,0-1.59,0,3.1,3.1,0,0,1-5-2.73c0-1.3,1.06-2.25,1.8-3.21,1-1.31,1.95-2.43,3.73-2.5,2-.08,3.2,1,4.31,2.46C40.62,36.68,41.54,37.41,41.71,38.38Z" transform="translate(-27.24 -27.87)"/><ellipse class="cls-1" cx="6.31" cy="2.34" rx="2.02" ry="2.34"/><ellipse class="cls-1" cx="11.25" cy="2.34" rx="2.02" ry="2.34"/><ellipse class="cls-1" cx="29.32" cy="33.46" rx="2.02" ry="2.62" transform="translate(-36.13 -17.19) rotate(-17.98)"/><ellipse class="cls-1" cx="42.68" cy="33.6" rx="2.62" ry="2.02" transform="translate(-29.69 35.95) rotate(-72.02)"/></svg>