<?xml version="1.0" encoding="utf-8"?>
<!-- Generator: Adobe Illustrator 22.1.0, SVG Export Plug-In . SVG Version: 6.00 Build 0)  -->
<svg version="1.1" id="Layer_1" xmlns="http://www.w3.org/2000/svg" xmlns:xlink="http://www.w3.org/1999/xlink" x="0px" y="0px"
	 viewBox="0 0 17.5 14.7" style="enable-background:new 0 0 17.5 14.7;" xml:space="preserve">
<style type="text/css">
	.st0{fill:#D8B080;}
</style>
<title>poopaw</title>
<path class="st0" d="M14.5,10.5c0.5,1.7-0.6,3.5-2.3,3.9c-0.9,0.2-1.8,0.1-2.6-0.4c-0.5-0.3-1.1-0.3-1.6,0c-1.3,1.1-3.3,0.8-4.4-0.5
	c-0.5-0.6-0.7-1.4-0.6-2.2C3,10,4,9,4.8,8.1c1-1.3,2-2.4,3.7-2.5c2-0.1,3.2,1,4.3,2.5C13.4,8.8,14.3,9.5,14.5,10.5z"/>
<ellipse class="st0" cx="6.3" cy="2.3" rx="2" ry="2.3"/>
<ellipse class="st0" cx="11.3" cy="2.3" rx="2" ry="2.3"/>
<ellipse transform="matrix(0.9512 -0.3087 0.3087 0.9512 -1.6239 0.9193)" class="st0" cx="2.1" cy="5.6" rx="2" ry="2.6"/>
<ellipse transform="matrix(0.3087 -0.9512 0.9512 0.3087 5.2254 18.6551)" class="st0" cx="15.4" cy="5.7" rx="2.6" ry="2"/>
</svg>
