<svg id="Layer_1" data-name="Layer 1" xmlns="http://www.w3.org/2000/svg" viewBox="0 0 17.53 14.68"><defs><style>.cls-1{fill:#d09171;}</style></defs><title>poopaw</title><path class="cls-1" d="M14.47,10.51A3.22,3.22,0,0,1,9.56,14,1.48,1.48,0,0,0,8,14a3.1,3.1,0,0,1-5-2.73C3,10,4,9,4.77,8.08c1-1.31,2-2.43,3.73-2.5,2-.08,3.2,1,4.31,2.46C13.38,8.81,14.3,9.54,14.47,10.51Z" transform="translate(0)"/><ellipse class="cls-1" cx="6.31" cy="2.34" rx="2.02" ry="2.34"/><ellipse class="cls-1" cx="11.25" cy="2.34" rx="2.02" ry="2.34"/><ellipse class="cls-1" cx="2.09" cy="5.59" rx="2.02" ry="2.62" transform="translate(-1.62 0.92) rotate(-17.98)"/><ellipse class="cls-1" cx="15.44" cy="5.73" rx="2.62" ry="2.02" transform="translate(5.23 18.65) rotate(-72.02)"/></svg>